<svg xmlns="http://www.w3.org/2000/svg" width="24" height="24" viewBox="0 0 24 24">
    <g fill="none" fill-rule="evenodd">
        <g>
            <g>
                <g>
                    <path d="M0 0H24V24H0z" transform="translate(-518 -1049) translate(478 120) translate(40 929)"></path>
                    <path stroke="#EE4646" stroke-linecap="round" stroke-linejoin="round" stroke-width="1.3" d="M6.5 7.5h11l-.847 10.166c-.087 1.037-.953 1.834-1.993 1.834H9.34c-1.04 0-1.906-.797-1.993-1.834L6.5 7.5h0zM10.5 16.417L10 10.583M13.5 16.417L14 10.5M4.5 7.5L19.5 7.5M10.942 4.5h2.116c.861 0 1.626.55 1.898 1.368L15.5 7.5h0-7l.544-1.632C9.316 5.05 10.081 4.5 10.942 4.5z" transform="translate(-518 -1049) translate(478 120) translate(40 929)"></path>
                </g>
            </g>
        </g>
    </g>
</svg>